<svg width="265" height="56" viewBox="0 0 265 56" fill="none" xmlns="http://www.w3.org/2000/svg">
<path d="M40.8586 0.888184C43.82 0.888314 46.5565 2.46815 48.0373 5.03271L58.7951 23.6655C60.2759 26.2304 60.276 29.3907 58.7951 31.9556L48.0373 50.5874C46.5565 53.1522 43.8202 54.7328 40.8586 54.7329H19.343C16.3815 54.7327 13.6451 53.1522 12.1643 50.5874L1.40647 31.9556C-0.0743293 29.3907 -0.074258 26.2304 1.40647 23.6655L12.1643 5.03271C13.6451 2.46815 16.3816 0.888357 19.343 0.888184H40.8586ZM44.7434 10.3198C44.3277 9.69529 43.547 9.40732 42.8176 9.62744L42.7229 9.65869C41.7934 9.9979 41.3422 11.0581 41.7414 11.9634L41.7834 12.0532L48.0783 24.3804C48.9437 26.0755 48.9454 28.083 48.0832 29.7798L45.5276 34.8091L45.4358 34.9761C44.4456 36.6483 42.0697 36.8642 40.801 35.3423L40.2707 34.7065L40.1438 34.5425C39.5829 33.7604 39.4554 32.7458 39.8049 31.8491L39.8869 31.6587L41.4397 28.3979C41.7833 27.676 41.4859 26.8112 40.7707 26.4536L40.634 26.394C39.9409 26.1312 39.147 26.4286 38.8049 27.104L35.9241 32.7935L35.8254 33.0044C35.3943 33.9961 35.387 35.1219 35.8039 36.1196L35.8987 36.3315L41.4621 47.7231C41.7657 48.3443 42.6293 48.3767 42.9856 47.8042L43.0178 47.7466L52.9094 28.9722C53.5292 27.7952 53.5183 26.386 52.8811 25.2183L44.8215 10.4497L44.7434 10.3198ZM17.8137 9.51904C17.0843 9.29876 16.3037 9.58608 15.8879 10.2104L15.8088 10.3403L7.74925 25.1089C7.11195 26.2767 7.10186 27.6867 7.7219 28.8638L17.6125 47.6372L17.6457 47.6948C18.002 48.2675 18.8646 48.2351 19.1682 47.6138L24.7317 36.2222L24.8274 36.0103C25.2443 35.0124 25.2362 33.8867 24.8049 32.895L24.7063 32.6851L21.8264 26.9946C21.4843 26.3193 20.6903 26.0219 19.9973 26.2847L19.8596 26.3452C19.1448 26.7028 18.8475 27.5668 19.1907 28.2886L20.7434 31.5493L20.8254 31.7397C21.1751 32.6365 21.0474 33.6509 20.4866 34.4331L20.3596 34.5972L19.8303 35.2329C18.5615 36.7552 16.1846 36.5395 15.1946 34.8667L15.1028 34.7007L12.5481 29.6714C11.6856 27.9743 11.6873 25.9664 12.553 24.271L18.8469 11.9438L18.8889 11.854C19.2882 10.9487 18.8371 9.88946 17.9075 9.55029L17.8137 9.51904ZM26.5578 21.77C25.5832 21.7702 24.7933 22.56 24.7932 23.5347C24.7932 24.5094 25.5832 25.3001 26.5578 25.3003C27.5327 25.3003 28.3235 24.5095 28.3235 23.5347C28.3234 22.5599 27.5326 21.77 26.5578 21.77ZM34.1457 21.77C33.171 21.77 32.3802 22.5599 32.3801 23.5347C32.3801 24.5095 33.1709 25.3003 34.1457 25.3003C35.1205 25.3002 35.9104 24.5094 35.9104 23.5347C35.9103 22.56 35.1204 21.7701 34.1457 21.77ZM30.3948 14.3833C29.002 14.3833 27.8724 15.512 27.8723 16.9048C27.8723 18.2976 29.0019 19.4272 30.3948 19.4272C31.7875 19.4271 32.9162 18.2975 32.9162 16.9048C32.9161 15.5122 31.7874 14.3835 30.3948 14.3833ZM22.7541 15.1392C21.7794 15.1392 20.9895 15.93 20.9895 16.9048C20.9896 17.8795 21.7794 18.6694 22.7541 18.6694C23.7289 18.6694 24.5196 17.8795 24.5198 16.9048C24.5198 15.9299 23.729 15.1392 22.7541 15.1392ZM37.8762 15.1392C36.9014 15.1392 36.1116 15.93 36.1116 16.9048C36.1117 17.8795 36.9015 18.6693 37.8762 18.6694C38.851 18.6694 39.6417 17.8795 39.6418 16.9048C39.6418 15.9299 38.851 15.1392 37.8762 15.1392ZM26.5578 8.65967C25.5832 8.65987 24.7932 9.45058 24.7932 10.4253C24.7933 11.3999 25.5833 12.1897 26.5578 12.1899C27.5326 12.1899 28.3233 11.4 28.3235 10.4253C28.3235 9.45046 27.5327 8.65967 26.5578 8.65967ZM34.1457 8.65967C33.1709 8.65967 32.3801 9.45046 32.3801 10.4253C32.3802 11.4 33.171 12.1899 34.1457 12.1899C35.1205 12.1899 35.9103 11.4 35.9104 10.4253C35.9104 9.45048 35.1205 8.6597 34.1457 8.65967Z" fill="white"/>
<path d="M67.1221 53.3318L85.8089 0.61084H90.2141L108.972 53.3318H104.069L100.019 41.6792C99.2378 39.6187 97.9589 38.695 95.8273 38.695H80.0536C77.9221 38.695 76.5721 39.6187 75.8615 41.6792L71.8115 53.3318H67.1221ZM94.122 34.5739C96.1115 34.5739 97.1062 33.1529 96.4668 31.3055L89.2905 10.7003C88.722 8.99504 87.0168 8.99504 86.4484 10.7003L79.3431 31.3055C78.7036 33.1529 79.7694 34.5739 81.6878 34.5739H94.122Z" fill="white"/>
<path d="M169.323 54.4177C168.905 54.4419 168.481 54.4558 168.052 54.4558V54.4548C168.481 54.4548 168.905 54.4419 169.323 54.4177ZM168.052 16.2644C171.592 16.2645 174.753 17.0843 177.55 18.7117C180.354 20.3436 182.571 22.5851 184.205 25.4451L184.209 25.4509L184.213 25.4578C185.891 28.2554 186.734 31.3875 186.734 34.8689C186.734 38.3475 185.942 41.4708 184.365 44.2537L184.21 44.5222L184.208 44.5251C182.624 47.2469 180.492 49.4389 177.804 51.1072L177.542 51.2673C174.746 52.945 171.588 53.7887 168.052 53.7888C164.572 53.7888 161.413 52.9466 158.562 51.2673C155.838 49.6335 153.644 47.4502 151.974 44.7097L151.813 44.4421C150.186 41.5915 149.368 38.4055 149.368 34.8689C149.368 31.3865 150.185 28.2538 151.811 25.4568L151.812 25.4578C153.499 22.646 155.743 20.4264 158.553 18.7917L158.557 18.7888C161.41 17.1077 164.57 16.2644 168.052 16.2644ZM184.459 45.3982C183.465 46.9931 182.278 48.4038 180.898 49.6306C182.124 48.5402 183.198 47.3047 184.12 45.9236L184.459 45.3982ZM168.052 20.2449C165.353 20.2449 162.907 20.8806 160.734 22.1619C158.704 23.3591 157.086 24.9748 155.887 26.9998L155.651 27.4109C154.427 29.5841 153.825 32.0772 153.825 34.8689C153.825 37.7144 154.428 40.2832 155.648 42.5583L155.651 42.5642C156.872 44.7826 158.569 46.5361 160.734 47.8132L161.146 48.0457C163.214 49.171 165.521 49.7292 168.052 49.7292C170.798 49.7291 173.243 49.0959 175.367 47.8123C177.537 46.5327 179.235 44.7508 180.454 42.4792C181.726 40.2068 182.357 37.6645 182.357 34.8689C182.357 32.1566 181.763 29.7266 180.559 27.5984L180.44 27.3933C179.221 25.1831 177.527 23.4357 175.367 22.1619C173.243 20.8783 170.798 20.245 168.052 20.2449ZM167.099 49.0349C167.412 49.0537 167.73 49.0632 168.052 49.0632L167.569 49.0564C167.412 49.0517 167.254 49.0442 167.099 49.0349ZM168.543 49.0554C168.38 49.0602 168.217 49.0632 168.052 49.0632C168.217 49.0632 168.38 49.0602 168.543 49.0554ZM167.043 49.031C166.904 49.0222 166.766 49.0113 166.629 48.9988C166.766 49.0113 166.904 49.0222 167.043 49.031ZM166.578 48.9939C166.447 48.9815 166.316 48.9677 166.187 48.9519C166.316 48.9677 166.447 48.9815 166.578 48.9939ZM166.083 48.9382C165.959 48.9223 165.836 48.9055 165.714 48.8865C165.836 48.9055 165.959 48.9223 166.083 48.9382ZM165.653 48.8757C165.534 48.8566 165.416 48.8362 165.298 48.8142C165.416 48.8362 165.534 48.8567 165.653 48.8757ZM165.16 48.7878C165.058 48.7676 164.956 48.7468 164.854 48.7244C164.956 48.7468 165.058 48.7676 165.16 48.7878ZM164.724 48.6941C164.627 48.6717 164.531 48.6482 164.436 48.6238C164.531 48.6482 164.627 48.6717 164.724 48.6941ZM164.279 48.5828C164.195 48.56 164.11 48.5368 164.026 48.5125C164.11 48.5368 164.195 48.56 164.279 48.5828ZM163.843 48.4578C163.759 48.4322 163.676 48.4058 163.594 48.3787C163.676 48.4058 163.759 48.4322 163.843 48.4578ZM163.45 48.3308C163.363 48.3009 163.275 48.2698 163.188 48.238C163.275 48.2698 163.363 48.3009 163.45 48.3308ZM163.018 48.1746C162.942 48.1457 162.867 48.1159 162.792 48.0857C162.867 48.1159 162.942 48.1457 163.018 48.1746ZM162.624 48.0173C162.546 47.9846 162.469 47.9501 162.392 47.9158C162.469 47.9501 162.546 47.9846 162.624 48.0173ZM162.223 47.8406C162.154 47.8087 162.085 47.7751 162.017 47.7419C162.085 47.7751 162.154 47.8087 162.223 47.8406ZM161.826 47.6492C161.758 47.6149 161.691 47.5793 161.623 47.5437C161.691 47.5792 161.758 47.6149 161.826 47.6492ZM158.942 45.6814C159.158 45.8756 159.381 46.0628 159.61 46.2429C159.381 46.0628 159.158 45.8756 158.942 45.6814ZM176.759 46.0183C176.73 46.0428 176.7 46.0673 176.671 46.0916C176.7 46.0673 176.73 46.0428 176.759 46.0183ZM177.068 45.7507C177.036 45.7798 177.003 45.8079 176.97 45.8367C177.003 45.8079 177.036 45.7798 177.068 45.7507ZM177.382 45.4597C177.353 45.4871 177.325 45.5146 177.296 45.5417C177.325 45.5146 177.353 45.4871 177.382 45.4597ZM177.687 45.157C177.648 45.1962 177.61 45.2354 177.571 45.2742C177.61 45.2354 177.648 45.1962 177.687 45.157ZM155.828 41.4197C155.955 41.6986 156.091 41.973 156.235 42.2429C156.817 43.3002 157.511 44.2453 158.317 45.0779C157.511 44.2452 156.817 43.3003 156.235 42.2429C156.091 41.9731 155.955 41.6985 155.828 41.4197ZM177.968 44.8601C177.938 44.8926 177.908 44.9246 177.878 44.9568C177.908 44.9246 177.938 44.8926 177.968 44.8601ZM185.58 43.3484C185.429 43.6693 185.271 43.9876 185.101 44.3005L184.783 44.8601C185.074 44.3669 185.338 43.8622 185.58 43.3484ZM178.227 44.5671C178.207 44.5897 178.188 44.6121 178.168 44.6345C178.188 44.6121 178.207 44.5897 178.227 44.5671ZM178.514 44.2214C178.488 44.2537 178.463 44.2862 178.437 44.3181C178.463 44.2862 178.488 44.2537 178.514 44.2214ZM178.804 43.8425C178.766 43.8938 178.728 43.9452 178.689 43.9958C178.728 43.9452 178.766 43.8938 178.804 43.8425ZM179.081 43.4529C179.035 43.5202 178.99 43.5878 178.942 43.6541C178.99 43.5878 179.035 43.5202 179.081 43.4529ZM179.294 43.1335C179.256 43.1918 179.219 43.2499 179.181 43.3074C179.219 43.2499 179.256 43.1918 179.294 43.1335ZM180.279 41.3679C180.251 41.4271 180.222 41.4859 180.192 41.5447C180.222 41.4859 180.251 41.4271 180.279 41.3679ZM155.593 40.8669C155.558 40.781 155.523 40.695 155.49 40.6082C155.523 40.6949 155.558 40.781 155.593 40.8669ZM180.634 40.5632C180.619 40.5991 180.605 40.6349 180.59 40.6707C180.605 40.6349 180.619 40.5991 180.634 40.5632ZM155.415 40.4041C155.383 40.3168 155.351 40.2295 155.321 40.1414C155.351 40.2295 155.383 40.3168 155.415 40.4041ZM180.804 40.1208C180.786 40.1708 180.767 40.2205 180.748 40.2703C180.767 40.2205 180.786 40.1708 180.804 40.1208ZM155.283 40.0261C155.253 39.9337 155.222 39.8411 155.193 39.7478C155.222 39.8411 155.253 39.9337 155.283 40.0261ZM180.955 39.6824C180.93 39.7592 180.903 39.8355 180.877 39.9119C180.903 39.8355 180.93 39.7592 180.955 39.6824ZM155.147 39.5935C155.119 39.4985 155.091 39.4033 155.064 39.3074C155.091 39.4033 155.119 39.4985 155.147 39.5935ZM181.07 39.3103C181.057 39.3538 181.044 39.3969 181.03 39.4402C181.044 39.3969 181.057 39.3538 181.07 39.3103ZM155.02 39.1384C154.992 39.0351 154.966 38.9313 154.941 38.8269C154.966 38.9313 154.992 39.0351 155.02 39.1384ZM181.193 38.8699C181.182 38.9145 181.17 38.9592 181.158 39.0037C181.17 38.9592 181.182 38.9145 181.193 38.8699ZM154.911 38.7009C154.887 38.5983 154.865 38.495 154.844 38.3914C154.865 38.495 154.887 38.5983 154.911 38.7009ZM181.311 38.3914C181.297 38.4517 181.283 38.512 181.269 38.572C181.283 38.512 181.297 38.4517 181.311 38.3914ZM154.812 38.241C154.789 38.1299 154.769 38.0182 154.749 37.906C154.769 38.0182 154.789 38.1299 154.812 38.241ZM181.411 37.906C181.397 37.9821 181.382 38.058 181.366 38.1335C181.382 38.058 181.397 37.9821 181.411 37.906ZM154.728 37.7839C154.71 37.6815 154.694 37.5787 154.679 37.4753C154.694 37.5787 154.71 37.6816 154.728 37.7839ZM181.479 37.5212C181.469 37.5776 181.461 37.6341 181.451 37.6902C181.461 37.6341 181.469 37.5776 181.479 37.5212ZM154.654 37.3103C154.636 37.1802 154.62 37.0493 154.605 36.9177C154.62 37.0493 154.636 37.1802 154.654 37.3103ZM181.541 37.1023C181.535 37.145 181.531 37.1877 181.524 37.2302C181.531 37.1877 181.535 37.145 181.541 37.1023ZM154.5 34.2957C154.494 34.4848 154.491 34.6755 154.491 34.8679C154.491 35.5429 154.527 36.2007 154.597 36.8406C154.544 36.3636 154.511 35.877 154.498 35.3806L154.491 34.8689C154.491 34.6762 154.494 34.4851 154.5 34.2957ZM181.608 36.5339C181.601 36.6129 181.593 36.6918 181.584 36.7703C181.593 36.6918 181.601 36.6129 181.608 36.5339ZM181.659 35.905C181.651 36.0428 181.641 36.1798 181.629 36.3162C181.641 36.1798 181.651 36.0428 181.659 35.905ZM181.69 34.8679L181.691 34.8689L181.684 35.3708C181.679 35.5329 181.672 35.6941 181.663 35.8542C181.682 35.5296 181.69 35.2006 181.69 34.8679ZM187.032 30.9685C187.237 32.0118 187.356 33.0886 187.39 34.199C187.356 33.089 187.237 32.0125 187.032 30.9695V30.9685ZM154.521 33.8171C154.529 33.6815 154.539 33.5467 154.55 33.4128C154.539 33.5467 154.529 33.6815 154.521 33.8171ZM154.562 33.2898C154.572 33.1726 154.584 33.0561 154.597 32.9402C154.584 33.0561 154.572 33.1726 154.562 33.2898ZM181.581 32.947C181.592 33.0394 181.601 33.1322 181.61 33.2253C181.601 33.1322 181.592 33.0394 181.581 32.947ZM154.613 32.8044C154.625 32.7037 154.637 32.6034 154.651 32.5037C154.637 32.6034 154.625 32.7037 154.613 32.8044ZM181.522 32.5095C181.533 32.5844 181.544 32.6596 181.554 32.7351C181.544 32.6596 181.533 32.5844 181.522 32.5095ZM154.68 32.3132C154.694 32.219 154.709 32.1253 154.726 32.032C154.709 32.1253 154.694 32.219 154.68 32.3132ZM181.448 32.0515C181.464 32.137 181.477 32.223 181.491 32.3093C181.477 32.223 181.464 32.137 181.448 32.0515ZM154.755 31.8718C154.773 31.7756 154.791 31.6799 154.811 31.5847C154.791 31.6799 154.773 31.7756 154.755 31.8718ZM181.359 31.5994C181.375 31.6723 181.39 31.7456 181.404 31.8191C181.39 31.7456 181.375 31.6723 181.359 31.5994ZM154.841 31.4402C154.866 31.3255 154.893 31.2117 154.92 31.0984C154.893 31.2117 154.866 31.3255 154.841 31.4402ZM181.266 31.1892C181.281 31.2518 181.296 31.3146 181.311 31.3777C181.296 31.3146 181.281 31.2518 181.266 31.1892ZM154.94 31.0144C154.966 30.9097 154.992 30.8054 155.021 30.7019C154.992 30.8054 154.966 30.9097 154.94 31.0144ZM181.156 30.7742C181.169 30.8187 181.181 30.8632 181.193 30.908C181.181 30.8632 181.169 30.8187 181.156 30.7742ZM155.062 30.5535C155.087 30.4661 155.113 30.3792 155.14 30.2927C155.113 30.3792 155.087 30.4661 155.062 30.5535ZM181.029 30.3474C181.047 30.4029 181.064 30.4585 181.081 30.5144C181.064 30.4585 181.047 30.4029 181.029 30.3474ZM155.194 30.1189C155.219 30.041 155.246 29.9637 155.272 29.8865C155.246 29.9637 155.219 30.041 155.194 30.1189ZM180.898 29.9578C180.914 30.0011 180.93 30.0441 180.944 30.0876C180.93 30.0441 180.914 30.0011 180.898 29.9578ZM155.344 29.6814C155.37 29.6091 155.397 29.5372 155.424 29.4656C155.397 29.5372 155.37 29.6091 155.344 29.6814ZM180.736 29.5212C180.757 29.5747 180.78 29.6276 180.8 29.6814C180.78 29.6276 180.757 29.5747 180.736 29.5212ZM155.488 29.2976C155.519 29.2196 155.552 29.1424 155.584 29.0652C155.552 29.1424 155.519 29.2196 155.488 29.2976ZM180.575 29.1277C180.599 29.1819 180.622 29.2362 180.645 29.2908C180.622 29.2362 180.599 29.1819 180.575 29.1277ZM155.656 28.8923C155.709 28.7704 155.765 28.6499 155.822 28.53C155.765 28.6499 155.709 28.7704 155.656 28.8923ZM185.1 25.6628C185.509 26.4009 185.864 27.1601 186.164 27.9412L186.378 28.53C186.037 27.5407 185.611 26.585 185.1 25.6628ZM156.455 27.3455C156.68 26.9651 156.921 26.6004 157.177 26.2507C156.921 26.6004 156.68 26.9651 156.455 27.3455ZM179.646 27.3445C179.722 27.4716 179.795 27.6006 179.867 27.7312C179.795 27.6006 179.722 27.4717 179.646 27.3445ZM179.181 26.613C179.219 26.67 179.257 26.7281 179.295 26.7859C179.257 26.7281 179.219 26.67 179.181 26.613ZM178.943 26.2761C178.989 26.3393 179.034 26.4034 179.079 26.4675C179.034 26.4034 178.989 26.3393 178.943 26.2761ZM157.23 26.1785C157.301 26.083 157.373 25.9885 157.446 25.8953C157.373 25.9885 157.301 26.083 157.23 26.1785ZM178.696 25.948C178.734 25.9968 178.771 26.0461 178.809 26.0955C178.771 26.0461 178.734 25.9968 178.696 25.948ZM157.482 25.8494C157.553 25.7598 157.625 25.6711 157.698 25.5837C157.625 25.6711 157.553 25.7598 157.482 25.8494ZM178.43 25.616C178.468 25.662 178.505 25.709 178.543 25.7556C178.505 25.709 178.468 25.662 178.43 25.616ZM157.807 25.4578C157.865 25.3896 157.924 25.3214 157.983 25.2546C157.924 25.3214 157.865 25.3896 157.807 25.4578ZM178.165 25.3083C178.2 25.3482 178.236 25.3881 178.271 25.4285C178.236 25.3881 178.2 25.3482 178.165 25.3083ZM158.062 25.1677C158.134 25.0898 158.206 25.0133 158.279 24.9373C158.206 25.0133 158.134 25.0898 158.062 25.1677ZM177.862 24.9783C177.901 25.0193 177.94 25.0607 177.979 25.1023C177.94 25.0607 177.901 25.0193 177.862 24.9783ZM158.36 24.8523C158.431 24.7804 158.502 24.7096 158.574 24.6394C158.502 24.7096 158.431 24.7804 158.36 24.8523ZM177.541 24.6531C177.606 24.7163 177.67 24.7798 177.733 24.8445C177.67 24.7798 177.606 24.7163 177.541 24.6531ZM158.661 24.5554C158.738 24.482 158.815 24.4091 158.894 24.3376C158.815 24.4091 158.738 24.482 158.661 24.5554ZM177.276 24.4011C177.323 24.4444 177.37 24.488 177.416 24.532C177.37 24.488 177.323 24.4444 177.276 24.4011ZM158.969 24.2703C159.045 24.202 159.122 24.1347 159.2 24.0681C159.122 24.1347 159.045 24.202 158.969 24.2703ZM176.944 24.1052C176.995 24.1489 177.046 24.1926 177.096 24.2371C177.046 24.1926 176.995 24.1489 176.944 24.1052ZM183.883 23.6853C184 23.8552 184.115 24.0272 184.228 24.2019C184.115 24.0272 184 23.8552 183.883 23.6853ZM159.313 23.9724C159.386 23.912 159.459 23.8526 159.533 23.7937C159.459 23.8526 159.386 23.912 159.313 23.9724ZM176.669 23.8748C176.704 23.9033 176.74 23.9309 176.774 23.9597C176.74 23.9309 176.704 23.9033 176.669 23.8748ZM159.633 23.7146C159.728 23.6399 159.826 23.5671 159.924 23.4949C159.826 23.5671 159.728 23.6399 159.633 23.7146ZM160.691 22.9685C160.446 23.1241 160.208 23.2867 159.976 23.4558C160.096 23.3678 160.218 23.2813 160.343 23.197L160.691 22.9685ZM175.964 23.3406C176.012 23.3748 176.061 23.4083 176.109 23.4431C176.061 23.4083 176.012 23.3748 175.964 23.3406ZM161.858 22.3074V22.3083V22.3074ZM174.281 22.3181C174.346 22.3514 174.41 22.3871 174.475 22.4216C174.41 22.3871 174.346 22.3514 174.281 22.3181ZM180.898 20.3064C181.511 20.8483 182.086 21.4303 182.623 22.0515C182.086 21.4302 181.511 20.8484 180.898 20.3064ZM173.884 22.1248C173.981 22.1699 174.076 22.2168 174.172 22.2644C174.076 22.2168 173.981 22.1699 173.884 22.1248ZM173.513 21.9587C173.604 21.9976 173.694 22.0379 173.784 22.0789C173.694 22.0379 173.604 21.9976 173.513 21.9587ZM173.133 21.8044C173.192 21.8272 173.25 21.8511 173.309 21.8748C173.25 21.8511 173.192 21.8272 173.133 21.8044ZM172.725 21.655C172.777 21.6733 172.83 21.6927 172.882 21.7117C172.829 21.6927 172.777 21.6733 172.725 21.655ZM172.287 21.5125C172.366 21.5365 172.444 21.5612 172.521 21.5867C172.444 21.5612 172.366 21.5365 172.287 21.5125ZM171.874 21.3943C171.956 21.4163 172.037 21.4391 172.118 21.4626C172.037 21.4391 171.956 21.4163 171.874 21.3943ZM171.475 21.2937C171.545 21.3103 171.615 21.3268 171.685 21.3445C171.615 21.3268 171.545 21.3103 171.475 21.2937ZM171.065 21.2039C171.121 21.2152 171.177 21.226 171.232 21.238C171.177 21.226 171.121 21.2152 171.065 21.2039ZM170.623 21.1208C170.679 21.1302 170.734 21.1392 170.789 21.1492C170.734 21.1392 170.679 21.1302 170.623 21.1208ZM170.163 21.0505C170.236 21.0604 170.309 21.0708 170.381 21.0818C170.309 21.0708 170.236 21.0604 170.163 21.0505ZM169.8 21.0066C169.833 21.0103 169.866 21.0125 169.899 21.0164C169.866 21.0125 169.833 21.0103 169.8 21.0066ZM169.156 20.949C169.259 20.9559 169.361 20.9626 169.462 20.9714C169.361 20.9626 169.259 20.9559 169.156 20.949ZM155.806 41.3679C155.754 41.253 155.703 41.1377 155.654 41.0212C155.703 41.1377 155.754 41.253 155.806 41.3679ZM155.806 41.3679C155.813 41.3851 155.82 41.4026 155.828 41.4197C155.82 41.4026 155.813 41.3851 155.806 41.3679ZM181.63 33.4265C181.64 33.5453 181.648 33.6648 181.655 33.7849C181.648 33.6648 181.64 33.5453 181.63 33.4265ZM181.662 33.8923C181.67 34.0321 181.676 34.1727 181.681 34.3142C181.676 34.1727 181.67 34.0321 181.662 33.8923ZM181.684 34.3816C181.688 34.5393 181.69 34.6982 181.69 34.8582C181.69 34.6982 181.688 34.5393 181.684 34.3816ZM156.235 27.7312C156.307 27.601 156.38 27.4723 156.455 27.3455C156.38 27.4723 156.307 27.601 156.235 27.7312ZM179.425 26.9841C179.481 27.0724 179.536 27.1617 179.59 27.2517C179.536 27.1617 179.481 27.0724 179.425 26.9841Z" fill="white"/>
<path d="M192.227 7.78714C192.227 6.08188 190.948 4.80293 189.242 4.80293H184.624V0.61084H196.774V53.1897H192.227V7.78714Z" fill="white"/>
<path d="M252.922 54.4553C247.441 54.4553 241.754 51.8516 240.041 45.8905H244.632C245.865 48.6998 249.017 50.6183 252.785 50.6183C257.034 50.6183 260.048 47.9461 260.048 44.3146C260.048 40.6146 257.787 38.9702 254.156 37.8054L249.36 36.2979C244.289 34.722 240.863 31.5702 240.863 26.2258C240.863 20.4702 246.071 16.1536 252.1 16.1536C256.622 16.1536 261.898 18.2091 263.543 24.7184H259.226C258.198 21.8406 255.526 19.9906 252.1 19.9906C248.058 19.9906 245.111 22.6628 245.111 26.0202C245.111 28.898 246.756 30.9535 250.73 32.2554L255.526 33.7628C260.528 35.3387 264.296 38.2165 264.296 44.0405C264.296 50.1387 259.226 54.4553 252.922 54.4553Z" fill="white"/>
<path d="M220.456 54.9877C220.158 55.0013 219.857 55.0101 219.552 55.0101C219.253 55.0101 218.957 55.0013 218.664 54.9877C218.957 55.0013 219.253 55.0101 219.552 55.0101C219.857 55.0101 220.158 55.0013 220.456 54.9877ZM208.738 16.8197V38.0101C208.738 40.4066 209.152 42.53 209.999 44.3617L210.002 44.3695L210.006 44.3763C210.909 46.2072 212.189 47.6531 213.844 48.6937C215.506 49.739 217.416 50.2523 219.552 50.2523C222.756 50.2523 225.364 49.2046 227.302 47.0736L227.487 46.8636C229.48 44.6099 230.445 41.6351 230.445 38.0101V16.8197H234.706V38.2533C234.706 41.3535 234.099 44.0828 232.902 46.4574L232.785 46.6869C231.549 49.0405 229.842 50.8746 227.658 52.2035L227.445 52.3304C225.162 53.6673 222.537 54.3441 219.552 54.3441C216.625 54.3441 214.029 53.6696 211.745 52.3344C209.451 50.9391 207.642 49.0569 206.313 46.6771C205.044 44.309 204.397 41.508 204.397 38.2533V16.8197H208.738ZM228.636 52.3646C228.868 52.2068 229.094 52.0421 229.314 51.8724C229.094 52.0421 228.868 52.2068 228.636 52.3646ZM220.129 49.5746C219.939 49.5827 219.747 49.5863 219.552 49.5863C219.747 49.5863 219.939 49.5827 220.129 49.5746ZM220.679 49.5385C220.543 49.5502 220.406 49.5574 220.268 49.5648C220.406 49.5574 220.543 49.5502 220.679 49.5385ZM218.584 49.5463C218.546 49.5432 218.509 49.5409 218.472 49.5375C218.509 49.5409 218.546 49.5432 218.584 49.5463ZM218.231 49.5121C218.197 49.5081 218.162 49.5046 218.127 49.5004C218.162 49.5046 218.197 49.5081 218.231 49.5121ZM221.222 49.4789C221.123 49.4921 221.023 49.5013 220.923 49.5121C221.023 49.5013 221.123 49.4921 221.222 49.4789ZM217.941 49.475C217.885 49.467 217.828 49.4594 217.771 49.4506C217.828 49.4594 217.885 49.467 217.941 49.475ZM221.761 49.392C221.656 49.4114 221.549 49.4282 221.442 49.4447C221.549 49.4282 221.656 49.4114 221.761 49.392ZM217.625 49.4261C217.553 49.4137 217.481 49.401 217.409 49.3871C217.481 49.401 217.553 49.4137 217.625 49.4261ZM217.28 49.3607C217.226 49.3494 217.171 49.3377 217.117 49.3256C217.171 49.3377 217.226 49.3494 217.28 49.3607ZM222.256 49.2885C222.164 49.3102 222.071 49.3287 221.978 49.348C222.071 49.3287 222.164 49.3102 222.256 49.2885ZM216.928 49.2806C216.873 49.2671 216.818 49.2531 216.764 49.2386C216.818 49.2531 216.873 49.2671 216.928 49.2806ZM222.763 49.1537C222.68 49.1778 222.597 49.1999 222.514 49.222C222.597 49.1999 222.68 49.1778 222.763 49.1537ZM216.615 49.1986C216.56 49.1831 216.506 49.1671 216.451 49.1508C216.506 49.1672 216.56 49.1831 216.615 49.1986ZM216.29 49.101C216.227 49.0809 216.165 49.0597 216.104 49.0385C216.165 49.0597 216.227 49.0809 216.29 49.101ZM223.259 48.9935C223.157 49.0295 223.055 49.0624 222.951 49.0951C223.055 49.0624 223.157 49.0295 223.259 48.9935ZM215.999 49.0023C215.935 48.9796 215.872 48.956 215.81 48.932C215.872 48.956 215.935 48.9796 215.999 49.0023ZM223.716 48.8168C223.616 48.8584 223.515 48.8967 223.413 48.9349C223.515 48.8967 223.616 48.8584 223.716 48.8168ZM215.654 48.8715C215.605 48.8516 215.556 48.8307 215.507 48.8099C215.556 48.8307 215.605 48.8515 215.654 48.8715ZM215.375 48.7543C215.298 48.7202 215.222 48.6849 215.146 48.6488C215.222 48.6849 215.298 48.7202 215.375 48.7543ZM224.161 48.6156C224.079 48.6554 223.996 48.6925 223.912 48.7299C223.996 48.6925 224.079 48.6554 224.161 48.6156ZM215.073 48.6136C214.993 48.5746 214.913 48.5349 214.834 48.4935C214.913 48.5349 214.993 48.5746 215.073 48.6136ZM224.605 48.3832C224.524 48.4289 224.441 48.4719 224.357 48.515C224.441 48.472 224.524 48.4288 224.605 48.3832ZM214.776 48.4633C214.7 48.4228 214.625 48.3809 214.55 48.3383C214.625 48.3809 214.7 48.4228 214.776 48.4633ZM214.482 48.3002C214.421 48.2644 214.36 48.2271 214.299 48.1898C214.36 48.2271 214.421 48.2644 214.482 48.3002ZM225.021 48.1361C224.943 48.1855 224.863 48.2318 224.784 48.2787C224.863 48.2318 224.943 48.1855 225.021 48.1361ZM225.42 47.8656C225.35 47.9155 225.28 47.9634 225.209 48.0111C225.28 47.9634 225.35 47.9155 225.42 47.8656ZM225.808 47.5687C225.748 47.6169 225.688 47.6638 225.627 47.7103C225.688 47.6638 225.748 47.6169 225.808 47.5687ZM226.185 47.2465C226.125 47.3001 226.065 47.3519 226.005 47.4037C226.065 47.3519 226.125 47.3001 226.185 47.2465ZM226.546 46.8988C226.488 46.9572 226.43 47.0142 226.371 47.0707C226.43 47.0142 226.488 46.9572 226.546 46.8988ZM227.317 46.0306C227.209 46.1661 227.099 46.2999 226.983 46.4301L226.812 46.6234C226.782 46.6559 226.75 46.6862 226.72 46.7181C226.808 46.6235 226.897 46.5284 226.982 46.4291C227.098 46.299 227.209 46.1661 227.317 46.0306ZM212.142 46.389C212.229 46.4872 212.318 46.583 212.409 46.6771C212.396 46.6639 212.383 46.6514 212.37 46.6381L212.142 46.389ZM227.926 45.181C227.852 45.296 227.774 45.4082 227.696 45.5199C227.774 45.4082 227.852 45.296 227.926 45.181ZM228.197 44.7318C228.129 44.8512 228.058 44.9683 227.985 45.0844C228.058 44.9683 228.129 44.8512 228.197 44.7318ZM228.448 44.266C228.389 44.3823 228.327 44.4964 228.265 44.6097C228.327 44.4964 228.389 44.3823 228.448 44.266ZM228.667 43.806C228.618 43.9145 228.567 44.0213 228.516 44.1273C228.567 44.0213 228.618 43.9145 228.667 43.806ZM228.872 43.3187C228.838 43.4068 228.799 43.4929 228.763 43.5795C228.799 43.4929 228.838 43.4068 228.872 43.3187ZM210.354 43.4974C210.347 43.4801 210.339 43.4631 210.332 43.4457C210.339 43.4631 210.347 43.4801 210.354 43.4974ZM210.168 42.9965C210.142 42.9201 210.116 42.8433 210.091 42.766C210.116 42.8433 210.142 42.9201 210.168 42.9965ZM229.062 42.7972C229.029 42.8923 228.995 42.986 228.961 43.0795C228.995 42.986 229.029 42.8923 229.062 42.7972ZM210.026 42.5599C210.015 42.5229 210.003 42.4859 209.992 42.4486C210.003 42.4859 210.015 42.5229 210.026 42.5599ZM229.222 42.2836C229.195 42.3765 229.166 42.4685 229.138 42.5599C229.166 42.4685 229.195 42.3765 229.222 42.2836ZM209.926 42.2113C209.911 42.1574 209.896 42.1035 209.882 42.0492C209.896 42.1035 209.911 42.1574 209.926 42.2113ZM229.369 41.724C229.346 41.8215 229.32 41.918 229.295 42.014C229.32 41.918 229.346 41.8215 229.369 41.724ZM209.861 41.9652C209.836 41.8644 209.811 41.7629 209.788 41.6605C209.811 41.7629 209.836 41.8644 209.861 41.9652ZM209.766 41.5599C209.753 41.5022 209.741 41.4443 209.729 41.3861C209.741 41.4443 209.753 41.5022 209.766 41.5599ZM229.485 41.1888C229.468 41.2791 229.448 41.3684 229.429 41.4574C229.448 41.3684 229.468 41.2791 229.485 41.1888ZM209.681 41.142C209.672 41.094 209.663 41.0458 209.654 40.9974C209.663 41.0458 209.672 41.094 209.681 41.142ZM229.591 40.5902C229.573 40.7045 229.553 40.8176 229.533 40.9301C229.553 40.8176 229.573 40.7045 229.591 40.5902ZM209.618 40.7894C209.608 40.7286 209.6 40.6672 209.591 40.6058C209.6 40.6672 209.608 40.7286 209.618 40.7894ZM209.562 40.4066C209.557 40.3722 209.552 40.3377 209.548 40.3031C209.552 40.3377 209.557 40.3722 209.562 40.4066ZM229.669 39.9984C229.656 40.1126 229.641 40.2258 229.626 40.3383C229.641 40.2258 229.656 40.1126 229.669 39.9984ZM229.726 39.3988C229.717 39.5113 229.706 39.6229 229.695 39.7338C229.706 39.6229 229.717 39.5113 229.726 39.3988ZM209.476 39.6488C209.47 39.5837 209.465 39.5182 209.46 39.4525C209.465 39.5182 209.47 39.5837 209.476 39.6488ZM229.761 38.8051C229.756 38.9152 229.75 39.0245 229.743 39.1332C229.75 39.0245 229.756 38.9152 229.761 38.8051ZM229.779 38.0101L229.776 38.3373C229.776 38.3876 229.772 38.4377 229.771 38.4877C229.774 38.3301 229.779 38.1707 229.779 38.0101ZM227.631 45.6146C227.535 45.7488 227.436 45.8808 227.333 46.0101C227.436 45.8808 227.535 45.7488 227.631 45.6146ZM210.42 43.6615C210.434 43.6957 210.447 43.7301 210.462 43.764C210.447 43.7301 210.434 43.6957 210.42 43.6615ZM210.285 43.3187C210.257 43.2436 210.228 43.1683 210.201 43.0922C210.228 43.1683 210.257 43.2436 210.285 43.3187Z" fill="white"/>
<path d="M128.515 16.3915C131.798 16.3915 134.673 17.1351 137.157 18.6053L137.161 18.6073C139.703 20.0816 141.685 22.1384 143.111 24.788L143.114 24.7938L143.117 24.7987C144.59 27.3892 145.336 30.3991 145.336 33.8446C145.336 34.2429 145.311 34.724 145.26 35.2899C145.22 35.6851 145.148 36.1497 145.043 36.6854H114.438L114.513 37.3075C114.753 39.2856 115.306 41.0906 116.178 42.7157L116.181 42.7206L116.183 42.7255C117.442 44.9698 119.172 46.7282 121.366 47.9901L121.372 47.993C123.624 49.256 126.194 49.8797 129.067 49.8798C131.397 49.8797 133.551 49.4738 135.521 48.6532L135.533 48.6473C137.321 47.8527 138.862 46.7187 140.154 45.2518L142.924 48.0829C141.303 49.8879 139.324 51.3178 136.98 52.371C134.528 53.4439 131.866 53.9823 128.988 53.9823C125.451 53.9822 122.293 53.2117 119.502 51.6796L119.233 51.5282C116.369 49.8916 114.095 47.6442 112.406 44.7782C110.776 41.9222 109.956 38.7031 109.956 35.1083C109.956 31.5647 110.777 28.3978 112.408 25.5936L112.41 25.5897L112.565 25.3231C114.187 22.5851 116.357 20.4277 119.079 18.8436C121.884 17.2116 125.025 16.3915 128.515 16.3915ZM135.658 47.9774C135.542 48.0332 135.426 48.088 135.308 48.1405C135.189 48.1899 135.069 48.2377 134.949 48.2841C135.069 48.2378 135.188 48.1898 135.307 48.1405C135.425 48.0879 135.542 48.0332 135.658 47.9774ZM128.737 20.3163C121.513 20.3164 116.564 25.0028 115.09 31.8173C114.947 32.4799 115.47 33.0839 116.147 33.0839H140.395C141.008 33.0839 141.509 32.5843 141.468 31.9725C140.997 24.9303 136.025 20.3163 128.737 20.3163Z" fill="white"/>
</svg>
