<svg width="882" height="274" viewBox="0 0 882 274" fill="none" xmlns="http://www.w3.org/2000/svg">
<g opacity="0.8">
<path d="M429.176 171.339L432.927 1.09145L435.299 1L442.525 171.171L429.176 171.339Z" stroke="white" stroke-width="1.64423"/>
<path fill-rule="evenodd" clip-rule="evenodd" d="M485.936 223.613C485.936 236.685 480.856 249.221 471.813 258.465C462.769 267.708 450.504 272.901 437.715 272.901C424.926 272.901 412.66 267.708 403.617 258.465C394.574 249.221 389.493 236.685 389.493 223.613C389.493 210.541 394.574 198.004 403.617 188.76C412.66 179.517 424.926 174.324 437.715 174.324C450.504 174.324 462.769 179.517 471.813 188.76C480.856 198.004 485.936 210.541 485.936 223.613Z" stroke="white" stroke-width="1.64423" stroke-linecap="square"/>
<path d="M394.558 201.977C393.62 198.383 392.366 195.071 387.63 194.866L2.14288 178.879L1 172.739L880.637 169.986L878.43 174.852L670.965 187.624L485.179 193.719C482.571 194.569 480.736 196.871 480.452 201.662" stroke="white" stroke-width="1.64423"/>
<path fill-rule="evenodd" clip-rule="evenodd" d="M222.765 188.687C222.663 190.827 221.714 192.838 220.128 194.279C218.542 195.719 216.449 196.471 214.309 196.368C212.169 196.265 210.158 195.317 208.717 193.731C207.276 192.145 206.525 190.052 206.628 187.912C206.73 185.772 207.679 183.761 209.265 182.32C210.851 180.88 212.944 180.128 215.084 180.231C217.224 180.334 219.235 181.282 220.676 182.868C222.117 184.454 222.868 186.547 222.765 188.687Z" fill="black" stroke="white" stroke-width="1.5" stroke-linecap="square"/>
<path fill-rule="evenodd" clip-rule="evenodd" d="M258.817 190.386C258.817 203.147 254.022 215.386 245.486 224.409C236.95 233.433 225.373 238.502 213.301 238.502C201.23 238.502 189.653 233.433 181.117 224.409C172.581 215.386 167.786 203.147 167.786 190.386C167.786 177.625 172.581 165.386 181.117 156.362C189.653 147.339 201.23 142.27 213.301 142.27C225.373 142.27 236.95 147.339 245.486 156.362C254.022 165.386 258.817 177.625 258.817 190.386Z" stroke="white" stroke-width="2" stroke-linecap="square" stroke-dasharray="8 8"/>
<path fill-rule="evenodd" clip-rule="evenodd" d="M378.323 190.55C378.323 203.311 373.528 215.55 364.992 224.573C356.456 233.597 344.879 238.666 332.807 238.666C320.736 238.666 309.159 233.597 300.623 224.573C292.087 215.55 287.292 203.311 287.292 190.55C287.292 177.789 292.087 165.55 300.623 156.527C309.159 147.503 320.736 142.434 332.807 142.434C344.879 142.434 356.456 147.503 364.992 156.527C373.528 165.55 378.323 177.789 378.323 190.55Z" stroke="white" stroke-width="2" stroke-linecap="square" stroke-dasharray="8 8"/>
<path d="M405.58 194.764C402.515 199.989 398.457 210.259 396.15 215.2L416.073 211.732L417.804 209.674L431.164 208.502L431.516 200.024L416.472 200.045L416.671 194.956L405.58 194.764Z" fill="white"/>
<path d="M418.542 199.633L400.339 200.607" stroke="black" stroke-width="0.689665"/>
<path d="M403.206 214.35C404.3 210.37 406.82 200.392 407.189 199.851C407.437 199.488 409.629 193.441 409.629 193.441" stroke="black" stroke-width="0.689665"/>
<path d="M410.114 212.672C411.143 205.481 413.022 192.496 413.11 192.496" stroke="black" stroke-width="0.689665"/>
<path d="M417.485 199.285L417.12 211.295" stroke="black" stroke-width="0.689665"/>
<path d="M455.393 199.793L473.596 200.767" stroke="black" stroke-width="0.689665"/>
<path d="M470.398 213.353C469.304 209.373 467.115 200.552 466.745 200.011C466.497 199.649 464.306 193.602 464.306 193.602" stroke="black" stroke-width="0.689665"/>
<path d="M463.82 212.832C462.791 205.641 460.911 192.656 460.823 192.656" stroke="black" stroke-width="0.689665"/>
<path d="M456.875 199.445L457.522 211.596" stroke="black" stroke-width="0.689665"/>
<path d="M442.262 199.564H431.717V208.456H442.262V199.564Z" fill="white" stroke="black" stroke-width="0.586438" stroke-linecap="square"/>
<path d="M416.144 229.365C415.931 227.296 416.583 225.216 418.003 223.695C423.774 217.515 430.287 213.52 437.763 213.428C449.541 214.641 452.359 218.192 457.131 224.645C458.234 226.138 458.814 227.967 458.707 229.82C458.277 237.27 456.933 245.076 446.743 252.663C446.095 253.146 445.363 253.51 444.591 253.745C440.441 255.008 436.19 255.805 430.757 253.921C420.783 249.155 417.493 242.503 416.144 229.365Z" fill="white" stroke="white" stroke-width="0.689665"/>
<path fill-rule="evenodd" clip-rule="evenodd" d="M341.436 189.13C341.333 191.27 340.385 193.282 338.799 194.722C337.213 196.163 335.12 196.914 332.98 196.811C330.84 196.709 328.828 195.76 327.388 194.174C325.947 192.588 325.195 190.495 325.298 188.356C325.401 186.216 326.35 184.204 327.935 182.764C329.521 181.323 331.614 180.572 333.755 180.675C335.895 180.777 337.906 181.726 339.347 183.312C340.787 184.897 341.539 186.99 341.436 189.13Z" fill="black" stroke="white" stroke-width="1.5" stroke-linecap="square"/>
<path d="M468.329 194.582C471.395 199.808 475.453 210.078 477.76 215.019L457.837 211.55L456.106 209.492L442.746 208.32L442.394 199.842L457.438 199.864L457.238 194.775L468.329 194.582Z" fill="white"/>
<path d="M455.368 199.451L473.571 200.425" stroke="black" stroke-width="0.689665"/>
<path d="M470.707 214.168C469.612 210.188 467.092 200.21 466.723 199.669C466.475 199.307 464.283 193.26 464.283 193.26" stroke="black" stroke-width="0.689665"/>
<path d="M463.797 212.49C462.768 205.299 460.889 192.314 460.801 192.314" stroke="black" stroke-width="0.689665"/>
<path d="M456.426 199.104L456.791 211.113" stroke="black" stroke-width="0.689665"/>
<path fill-rule="evenodd" clip-rule="evenodd" d="M650.587 187.863C650.69 190.003 651.639 192.014 653.225 193.454C654.81 194.895 656.904 195.646 659.044 195.544C661.184 195.441 663.195 194.492 664.636 192.907C666.076 191.321 666.828 189.228 666.725 187.088C666.623 184.948 665.674 182.937 664.088 181.496C662.502 180.056 660.409 179.304 658.269 179.407C656.129 179.51 654.117 180.458 652.677 182.044C651.236 183.63 650.485 185.723 650.587 187.863Z" fill="black" stroke="white" stroke-width="0.919553" stroke-linecap="square"/>
<path fill-rule="evenodd" clip-rule="evenodd" d="M614.536 189.562C614.536 202.323 619.331 214.561 627.867 223.585C636.403 232.609 647.98 237.678 660.051 237.678C672.123 237.678 683.7 232.609 692.236 223.585C700.772 214.561 705.567 202.323 705.567 189.562C705.567 176.8 700.772 164.562 692.236 155.538C683.7 146.515 672.123 141.445 660.051 141.445C647.98 141.445 636.403 146.515 627.867 155.538C619.331 164.562 614.536 176.8 614.536 189.562Z" stroke="white" stroke-width="2" stroke-linecap="square" stroke-dasharray="8 8"/>
<path fill-rule="evenodd" clip-rule="evenodd" d="M495.03 189.728C495.03 202.489 499.825 214.727 508.361 223.751C516.897 232.775 528.474 237.844 540.545 237.844C552.617 237.844 564.194 232.775 572.73 223.751C581.266 214.727 586.061 202.489 586.061 189.728C586.061 176.966 581.266 164.728 572.73 155.704C564.194 146.681 552.617 141.611 540.545 141.611C528.474 141.611 516.897 146.681 508.361 155.704C499.825 164.728 495.03 176.966 495.03 189.728Z" stroke="white" stroke-width="2" stroke-linecap="square" stroke-dasharray="8 8"/>
<path fill-rule="evenodd" clip-rule="evenodd" d="M531.916 188.308C532.019 190.448 532.968 192.459 534.554 193.9C536.14 195.34 538.233 196.092 540.373 195.989C542.513 195.886 544.524 194.938 545.965 193.352C547.405 191.766 548.157 189.673 548.054 187.533C547.952 185.393 547.003 183.382 545.417 181.941C543.831 180.501 541.738 179.749 539.598 179.852C537.458 179.955 535.446 180.904 534.006 182.489C532.565 184.075 531.814 186.168 531.916 188.308Z" fill="black" stroke="white" stroke-width="1.5" stroke-linecap="square"/>
</g>
</svg>
